<svg xmlns="http://www.w3.org/2000/svg" viewBox="0 0 1200 630" role="img" aria-labelledby="title desc">
  <title id="title">Chat Assist Pro cover</title>
  <desc id="desc">An editorial API protocol card for a FastAPI intent classification chatbot.</desc>
  <rect width="1200" height="630" fill="#f7f6f1"/>
  <rect x="58" y="52" width="1084" height="526" rx="22" fill="none" stroke="#cdd8d1" stroke-width="2"/>
  <rect x="58" y="52" width="1084" height="54" rx="22" fill="#263f52"/>
  <circle cx="92" cy="79" r="7" fill="#4f8f72"/><circle cx="116" cy="79" r="7" fill="#d1a54a"/>
  <text x="960" y="85" font-family="Consolas,monospace" font-size="15" fill="#dce8e0">API PROTOCOL CARD</text>
  <text x="103" y="201" font-family="Georgia,serif" font-size="72" font-weight="700" fill="#263f52">Chat Assist Pro</text>
  <text x="106" y="258" font-family="Segoe UI,Arial,sans-serif" font-size="25" fill="#4c626f">Intent-aware FAQ responses through a small FastAPI service.</text>

  <g transform="translate(105 326)">
    <rect width="505" height="165" rx="18" fill="#fff" stroke="#cdd8d1" stroke-width="2"/>
    <rect x="24" y="25" width="92" height="32" rx="16" fill="#4f8f72"/>
    <text x="45" y="47" font-family="Consolas,monospace" font-size="15" font-weight="700" fill="#fff">POST</text>
    <text x="136" y="48" font-family="Consolas,monospace" font-size="18" fill="#263f52">/chat</text>
    <path d="M26 83h440M26 109h370M26 135h410" stroke="#dae3de" stroke-width="9" stroke-linecap="round"/>
  </g>
  <g transform="translate(690 202)">
    <path d="M16 0h307a 18 18 0 0 1 18 18v189a 18 18 0 0 1 -18 18H183l-64 48 15-48H16A 18 18 0 0 1 -2 207V18A 18 18 0 0 1 16 0z" fill="#263f52"/>
    <rect x="35" y="39" width="110" height="36" rx="18" fill="#4f8f72"/>
    <text x="59" y="63" font-family="Consolas,monospace" font-size="16" font-weight="700" fill="#fff">track_order</text>
    <path d="M36 108h262M36 139h224M36 170h246" stroke="#dce8e0" stroke-width="10" stroke-linecap="round"/>
    <circle cx="293" cy="170" r="11" fill="#d1a54a"/>
  </g>
  <text x="106" y="546" font-family="Consolas,monospace" font-size="17" fill="#4f8f72">spaCy model · regex greetings · FAQ JSON · OpenAPI docs</text>
</svg>
